<?xml version="1.0" encoding="utf-8"?><!-- Uploaded to: SVG Repo, www.svgrepo.com, Generator: SVG Repo Mixer Tools -->
<svg version="1.1" id="designs" xmlns="http://www.w3.org/2000/svg" xmlns:xlink="http://www.w3.org/1999/xlink" 
	 width="800px" height="800px" viewBox="0 0 32 32" xml:space="preserve">
<style type="text/css">
	.scienceandfiction_een{fill:#2B4099;}
	.scienceandfiction_twee{fill:#CC2954;}
</style>
<path class="scienceandfiction_een" d="M29,21V5H3v16h11v3h-4v3h12v-3h-4v-3H29z M4,20V6h24v14H4z M21,25v1H11v-1H21z M17,24h-2v-3
	h2V24z"/>
<path class="scienceandfiction_twee" d="M11,8H6V7h5V8z M13,9h-3v1h3V9z M13,11h-3v1h3V11z M13,7h-1v1h1V7z M17,13h-1v1h1V13z
	 M18,17h-1v1h1V17z M15,13h-3v1h3V13z M18,15h-4v1h4V15z M22,17h-3v1h3V17z M9,9H8v1h1V9z M15,11h-1v1h1V11z"/>
</svg>